<?xml version="1.0" encoding="UTF-8"?>
<svg xmlns="http://www.w3.org/2000/svg" version="1.1" width="0" height="0">
  <!-- Wave shape divider -->
  <symbol id="wave-divider" viewBox="0 0 1200 120" preserveAspectRatio="none">
    <path d="M985.66,92.83C906.67,72,823.78,31,743.84,14.19c-82.26-17.34-168.06-16.33-250.45.39-57.84,11.73-114,31.07-172,41.86A600.21,600.21,0,0,1,0,27.35V120H1200V95.8C1132.19,118.92,1055.71,111.31,985.66,92.83Z"></path>
  </symbol>
  
  <!-- Curved divider -->
  <symbol id="curved-divider" viewBox="0 0 1200 120" preserveAspectRatio="none">
    <path d="M600,112.77C268.63,112.77,0,65.52,0,7.23V120H1200V7.23C1200,65.52,931.37,112.77,600,112.77Z"></path>
  </symbol>
  
  <!-- Triangle divider -->
  <symbol id="triangle-divider" viewBox="0 0 1200 120" preserveAspectRatio="none">
    <path d="M1200 0L0 0 598.97 114.72 1200 0z"></path>
  </symbol>
  
  <!-- Tilt divider -->
  <symbol id="tilt-divider" viewBox="0 0 1200 120" preserveAspectRatio="none">
    <path d="M1200 120L0 16.48 0 0 1200 0 1200 120z"></path>
  </symbol>
</svg>
